<?xml version="1.0" encoding="UTF-8" standalone="no"?>
<!-- Generator: Adobe Illustrator 17.0.1, SVG Export Plug-In . SVG Version: 6.00 Build 0)  -->

<svg
   xmlns:osb="http://www.openswatchbook.org/uri/2009/osb"
   xmlns:dc="http://purl.org/dc/elements/1.1/"
   xmlns:cc="http://creativecommons.org/ns#"
   xmlns:rdf="http://www.w3.org/1999/02/22-rdf-syntax-ns#"
   xmlns:svg="http://www.w3.org/2000/svg"
   xmlns="http://www.w3.org/2000/svg"
   xmlns:sodipodi="http://sodipodi.sourceforge.net/DTD/sodipodi-0.dtd"
   xmlns:inkscape="http://www.inkscape.org/namespaces/inkscape"
   version="1.1"
   x="0px"
   y="0px"
   width="86px"
   height="86px"
   viewBox="0 0 86 86"
   enable-background="new 0 0 86 86"
   xml:space="preserve"
   id="svg2"
   inkscape:version="0.91 r13725"
   sodipodi:docname="jolla-tide.svg"><metadata
     id="metadata27"><rdf:RDF><cc:Work
         rdf:about=""><dc:format>image/svg+xml</dc:format><dc:type
           rdf:resource="http://purl.org/dc/dcmitype/StillImage" /><dc:title /></cc:Work></rdf:RDF></metadata><defs
     id="defs25"><pattern
       inkscape:isstock="true"
       inkscape:stockid="Wavy"
       id="Wavy"
       height="5.1805778"
       width="30.066020"
       patternUnits="userSpaceOnUse"
       inkscape:collect="always"><path
         id="path5497"
         d="M 7.597,0.061 C 5.079,-0.187 2.656,0.302 -0.01,1.788 L -0.01,3.061 C 2.773,1.431 5.173,1.052 7.472,1.280 C 9.770,1.508 11.969,2.361 14.253,3.218 C 18.820,4.931 23.804,6.676 30.066,3.061 L 30.062,1.788 C 23.622,5.497 19.246,3.770 14.691,2.061 C 12.413,1.207 10.115,0.311 7.597,0.061 z "
         style="fill:black;stroke:none;" /></pattern><linearGradient
       id="linearGradient5660"
       osb:paint="solid"><stop
         style="stop-color:#e9afaf;stop-opacity:1;"
         offset="0"
         id="stop5662" /></linearGradient><linearGradient
       id="linearGradient5584"
       osb:paint="solid"><stop
         style="stop-color:#e9afaf;stop-opacity:1;"
         offset="0"
         id="stop5586" /></linearGradient></defs><sodipodi:namedview
     pagecolor="#ffffff"
     bordercolor="#666666"
     borderopacity="1"
     objecttolerance="10"
     gridtolerance="10"
     guidetolerance="10"
     inkscape:pageopacity="0"
     inkscape:pageshadow="2"
     inkscape:window-width="1920"
     inkscape:window-height="1055"
     id="namedview23"
     showgrid="false"
     inkscape:zoom="2.744186"
     inkscape:cx="-21.500001"
     inkscape:cy="42.999999"
     inkscape:window-x="-8"
     inkscape:window-y="-4"
     inkscape:window-maximized="1"
     inkscape:current-layer="svg2" /><g
     id="Layer_2"
     display="none" /><path
     style="opacity:0.69899998;fill:url(#Wavy);fill-opacity:1.0;fill-rule:nonzero;stroke:none;stroke-width:1;stroke-linecap:square;stroke-linejoin:miter;stroke-miterlimit:4;stroke-dasharray:none;stroke-dashoffset:0;stroke-opacity:1"
     id="path5658"
     sodipodi:type="arc"
     sodipodi:cx="43.546612"
     sodipodi:cy="44.09322"
     sodipodi:rx="41.724579"
     sodipodi:ry="41.542374"
     sodipodi:start="0"
     sodipodi:end="6.0631751"
     d="M 85.271191,44.09322 A 41.724579,41.542374 0 0 1 45.840413,85.572771 41.724579,41.542374 0 0 1 2.0742356,48.653882 41.724579,41.542374 0 0 1 36.692937,3.1151121 41.724579,41.542374 0 0 1 84.265429,35.027029"
     sodipodi:open="true" /><path
     inkscape:connector-curvature="0"
     style="opacity:1;fill:#d43522;fill-opacity:1;fill-rule:nonzero;stroke:#d86666;stroke-width:0.77680176;stroke-linecap:butt;stroke-linejoin:round;stroke-miterlimit:4;stroke-dasharray:none;stroke-dashoffset:0;stroke-opacity:1"
     d="M 28.210002,6.6992582 33.071686,38.596822 5.4922506,41.755563 c 0.0221,1.077947 0.113504,2.153609 0.272258,3.222795 0.935118,6.03865 4.011955,11.67726 8.8171844,16.147679 0.231435,-0.06069 0.456737,0.142138 0.684527,0.212382 2.59947,2.251448 6.860722,3.228659 10.51294,2.875567 4.816519,-0.318163 9.205776,1.053125 11.220785,3.505968 l -0.108933,0.03708 0.132226,-0.01691 c 0.02828,0.122511 0.091,0.231864 0.155524,0.337112 l 0.01593,0.03035 c 0.01593,0.02491 0.02469,0.05052 0.04281,0.07416 6.726883,12.091142 12.431148,9.040159 13.885013,-1.294511 0.199892,-0.242543 0.305612,-0.545394 0.256685,-0.866379 l 0,-0.01024 0.06213,-0.01023 -0.06611,-0.0035 -0.01197,-0.07753 c 1.235256,-2.762764 5.441646,-4.638293 9.622267,-5.815185 l 0.03107,0.134853 c 0.04601,-0.0073 0.09021,-0.01241 0.136208,-0.02023 l 0.06611,0.21238 -0.03505,-0.219122 C 72.181958,57.467807 75.319332,46.424538 74.046002,37.160451 73.869966,36.092811 73.625309,35.032724 73.314798,33.988223 l -30.356433,3.475629 -4.690568,-30.7648678 -10.057875,0 z"
     id="path7074" /></svg>