<?xml version="1.0" encoding="UTF-8" standalone="no"?>
<!-- Generator: Adobe Illustrator 17.0.1, SVG Export Plug-In . SVG Version: 6.00 Build 0)  -->

<svg
   xmlns:dc="http://purl.org/dc/elements/1.1/"
   xmlns:cc="http://creativecommons.org/ns#"
   xmlns:rdf="http://www.w3.org/1999/02/22-rdf-syntax-ns#"
   xmlns:svg="http://www.w3.org/2000/svg"
   xmlns="http://www.w3.org/2000/svg"
   xmlns:xlink="http://www.w3.org/1999/xlink"
   xmlns:sodipodi="http://sodipodi.sourceforge.net/DTD/sodipodi-0.dtd"
   xmlns:inkscape="http://www.inkscape.org/namespaces/inkscape"
   version="1.1"
   x="0px"
   y="0px"
   width="86px"
   height="86px"
   viewBox="0 0 86 86"
   enable-background="new 0 0 86 86"
   xml:space="preserve"
   id="svg2"
   inkscape:version="0.91 r13725"
   sodipodi:docname="jolla-tide.svg"><metadata
     id="metadata27"><rdf:RDF><cc:Work
         rdf:about=""><dc:format>image/svg+xml</dc:format><dc:type
           rdf:resource="http://purl.org/dc/dcmitype/StillImage" /><dc:title></dc:title></cc:Work></rdf:RDF></metadata><defs
     id="defs25"><linearGradient
       inkscape:collect="always"
       xlink:href="#SVGID_1_"
       id="linearGradient4931"
       x1="0.30000001"
       y1="43"
       x2="85.699997"
       y2="43"
       gradientUnits="userSpaceOnUse" /></defs><sodipodi:namedview
     pagecolor="#ffffff"
     bordercolor="#666666"
     borderopacity="1"
     objecttolerance="10"
     gridtolerance="10"
     guidetolerance="10"
     inkscape:pageopacity="0"
     inkscape:pageshadow="2"
     inkscape:window-width="1920"
     inkscape:window-height="1055"
     id="namedview23"
     showgrid="false"
     inkscape:zoom="2.744186"
     inkscape:cx="43"
     inkscape:cy="43"
     inkscape:window-x="-8"
     inkscape:window-y="-4"
     inkscape:window-maximized="1"
     inkscape:current-layer="svg2" /><g
     id="Layer_2"
     display="none" /><g
     id="Layer_1"
     transform="translate(0.36440949,-0.36440685)"
     style="opacity:0.699;fill:url(#linearGradient4931);fill-opacity:1"><linearGradient
       id="SVGID_1_"
       gradientUnits="userSpaceOnUse"
       x1="0.71689999"
       y1="85.283096"
       x2="85.283096"
       y2="0.71689999"
       style="fill-opacity:1.0;fill:url(#linearGradient4931)"><stop
         offset="0"
         style="stop-color:#EB424A;fill-opacity:1.0;fill:url(#linearGradient4931)"
         id="stop7" /><stop
         offset="1"
         style="stop-color:#FF7500;fill-opacity:1.0;fill:url(#linearGradient4931)"
         id="stop9" /></linearGradient><path
       d="M 84.277,0.3 43,0.3 C 19.417,0.3 0.3,19.418 0.3,43 l 0,41.277 c 0,0.786 0.637,1.423 1.423,1.423 L 43,85.7 C 66.583,85.7 85.7,66.582 85.7,43 l 0,-41.277 C 85.7,0.937 85.063,0.3 84.277,0.3 Z"
       id="path11"
       style="fill:url(#linearGradient4931);fill-opacity:1"
       inkscape:connector-curvature="0" /></g><path
     inkscape:connector-curvature="0"
     style="opacity:0.9153605;fill:#d43522;fill-opacity:1;fill-rule:nonzero;stroke:#d86666;stroke-width:0.77680176;stroke-linecap:butt;stroke-linejoin:round;stroke-miterlimit:4;stroke-dasharray:none;stroke-dashoffset:0;stroke-opacity:1"
     d="M 28.210002,6.6992582 33.071686,38.596822 5.4922506,41.755563 c 0.0221,1.077947 0.113504,2.153609 0.272258,3.222795 0.935118,6.03865 4.011955,11.67726 8.8171844,16.147679 0.231435,-0.06069 0.456737,0.142138 0.684527,0.212382 2.59947,2.251448 6.860722,3.228659 10.51294,2.875567 4.816519,-0.318163 9.205776,1.053125 11.220785,3.505968 l -0.108933,0.03708 0.132226,-0.01691 c 0.02828,0.122511 0.091,0.231864 0.155524,0.337112 l 0.01593,0.03035 c 0.01593,0.02491 0.02469,0.05052 0.04281,0.07416 6.726883,12.091142 12.431148,9.040159 13.885013,-1.294511 0.199892,-0.242543 0.305612,-0.545394 0.256685,-0.866379 l 0,-0.01024 0.06213,-0.01023 -0.06611,-0.0035 -0.01197,-0.07753 c 1.235256,-2.762764 5.441646,-4.638293 9.622267,-5.815185 l 0.03107,0.134853 c 0.04601,-0.0073 0.09021,-0.01241 0.136208,-0.02023 l 0.06611,0.21238 -0.03505,-0.219122 C 72.181958,57.467807 75.319332,46.424538 74.046002,37.160451 73.869966,36.092811 73.625309,35.032724 73.314798,33.988223 l -30.356433,3.475629 -4.690568,-30.7648678 -10.057875,0 z"
     id="path7074" /></svg>